<svg id="downloadIcon" xmlns="http://www.w3.org/2000/svg" viewBox="0 0 46.25 46.22" aria-hidden="true"><g id="Layer_2" data-name="Layer 2"><g id="Capa_1" data-name="Capa 1"><g id="down_load" data-name="down load"><path d="M46.25,31.78a2.88,2.88,0,0,0-2.88-2.89h-2.9a2.88,2.88,0,0,0-2.88,2.89v5.78H8.66V31.78a2.88,2.88,0,0,0-2.88-2.89H2.9A2.89,2.89,0,0,0,0,31.78V43.33a2.9,2.9,0,0,0,2.9,2.89H43.35a2.9,2.9,0,0,0,2.88-2.89V42.8h0Z" fill="inherit"/><path d="M21.82,31.25,9.19,18.62a1.82,1.82,0,0,1,1.26-3.09h5.42V4.5A4.51,4.51,0,0,1,20.39,0h5.42a4.52,4.52,0,0,1,4.51,4.5v11h5.42A1.81,1.81,0,0,1,37,18.62L24.37,31.25a1.79,1.79,0,0,1-2.55,0Z" fill="inherit"/></g></g></g></svg>