<?xml version="1.0" encoding="utf-8"?>
<!-- Generator: Adobe Illustrator 15.0.0, SVG Export Plug-In  -->
<!DOCTYPE svg PUBLIC "-//W3C//DTD SVG 1.1//EN" "http://www.w3.org/Graphics/SVG/1.1/DTD/svg11.dtd" [
	<!ENTITY ns_flows "http://ns.adobe.com/Flows/1.0/">
]>
<svg version="1.1"
	 xmlns="http://www.w3.org/2000/svg" xmlns:xlink="http://www.w3.org/1999/xlink" xmlns:a="http://ns.adobe.com/AdobeSVGViewerExtensions/3.0/"
	 x="0px" y="0px" width="126px" height="99px" viewBox="-0.721 -0.114 126 99"
	 overflow="visible" enable-background="new -0.721 -0.114 126 99" xml:space="preserve">
<defs>
</defs>
<path fill="#FFFFFF" d="M15.412,36.727V21.844c0-9.07,7.381-16.451,16.451-16.451h0.168v0.068c0,0.829,0.672,1.5,1.5,1.5h56.115
	c0.828,0,1.5-0.671,1.5-1.5V5.393h1.551c9.07,0,16.451,7.381,16.451,16.451v24.332h3.828V21.844
	c0-11.181-9.098-20.277-20.279-20.277h-1.551V1.5c0-0.828-0.672-1.5-1.5-1.5H33.531c-0.828,0-1.5,0.672-1.5,1.5v0.066h-0.168
	c-11.18,0-20.277,9.097-20.277,20.277v15.271c0.955-0.244,1.949-0.389,2.977-0.389H15.412z"/>
<path fill="#FFFFFF" d="M124.558,73.763h-2.607V46.177H98.394v-5.383c0-1.408-1.143-2.552-2.551-2.552h-12.26
	c-1.408,0-2.551,1.144-2.551,2.552v5.383H70.269v-5.383c0-1.408-1.143-2.552-2.551-2.552h-12.26c-1.409,0-2.55,1.144-2.55,2.552
	v5.383H34.396c-1.716-4.62-6.242-7.935-11.562-7.935h-8.719c-5.32,0-9.85,3.314-11.566,7.935h0.061v27.586H0v3.408h4.107
	c-2.51,2.164-4.106,5.361-4.106,8.937c0,6.517,5.284,11.8,11.8,11.8c3.113,0,5.936-1.214,8.044-3.184
	c-0.006,0.016-0.01,0.037-0.016,0.052l17.426-17.604h50.077l16.811,16.98c0.166,0.178,0.336,0.352,0.514,0.52l0.08,0.081
	c0-0.003-0.002-0.009-0.004-0.012c2.107,1.96,4.924,3.167,8.027,3.167c6.514,0,11.799-5.283,11.799-11.8
	c0-3.575-1.596-6.772-4.107-8.937h4.107V73.763z"/>
</svg>
