<?xml version="1.0" encoding="utf-8"?>
<!-- Generator: Adobe Illustrator 15.0.0, SVG Export Plug-In . SVG Version: 6.00 Build 0)  -->
<!DOCTYPE svg PUBLIC "-//W3C//DTD SVG 1.1//EN" "http://www.w3.org/Graphics/SVG/1.1/DTD/svg11.dtd">
<svg version="1.1" id="Layer_1" xmlns="http://www.w3.org/2000/svg" xmlns:xlink="http://www.w3.org/1999/xlink" x="0px" y="0px"
	 width="110px" height="74px" viewBox="0 0 110 74" enable-background="new 0 0 110 74" xml:space="preserve">
<g>
	<path fill="#FFFFFF" d="M13.87,56.008c0.172,0.329,0.44,0.578,0.756,0.708l39.3,15.921c0.154,0.062,0.317,0.093,0.48,0.093
		c0.161,0,0.323-0.031,0.479-0.093l39.3-15.921c0.314-0.13,0.582-0.379,0.754-0.708l12.727-24.266H1.146L13.87,56.008z"/>
	<path fill="#FFFFFF" d="M108.625,28.281c-0.256-0.52-0.736-0.841-1.256-0.841H1.441c-0.52,0-0.999,0.322-1.255,0.841
		C-0.07,28.8-0.062,29.438,0.207,29.95l0.341,0.652h107.718l0.34-0.652C108.873,29.438,108.881,28.8,108.625,28.281"/>
	<path fill="#FFFFFF" d="M34.217,15.22c0-2.372-1.651-4.3-3.687-4.3H12.822c-2.034,0-3.683,1.928-3.683,4.3v9.071h25.078V15.22z"/>
</g>
</svg>
