<?xml version="1.0" encoding="UTF-8" standalone="no"?>
<svg
   xmlns:dc="http://purl.org/dc/elements/1.1/"
   xmlns:cc="http://creativecommons.org/ns#"
   xmlns:rdf="http://www.w3.org/1999/02/22-rdf-syntax-ns#"
   xmlns:svg="http://www.w3.org/2000/svg"
   xmlns="http://www.w3.org/2000/svg"
   xmlns:sodipodi="http://sodipodi.sourceforge.net/DTD/sodipodi-0.dtd"
   xmlns:inkscape="http://www.inkscape.org/namespaces/inkscape"
   width="56"
   height="64"
   viewBox="0 0 56 64"
   id="svg3542"
   version="1.1"
   inkscape:version="0.91 r13725"
   sodipodi:docname="quote_pdf.svg">
  <metadata
     id="metadata3556">
    <rdf:RDF>
      <cc:Work
         rdf:about="">
        <dc:format>image/svg+xml</dc:format>
        <dc:type
           rdf:resource="http://purl.org/dc/dcmitype/StillImage" />
        <dc:title />
      </cc:Work>
    </rdf:RDF>
  </metadata>
  <defs
     id="defs3554" />
  <sodipodi:namedview
     pagecolor="#ffffff"
     bordercolor="#666666"
     borderopacity="1"
     objecttolerance="10"
     gridtolerance="10"
     guidetolerance="10"
     inkscape:pageopacity="0"
     inkscape:pageshadow="2"
     inkscape:window-width="1440"
     inkscape:window-height="799"
     id="namedview3552"
     showgrid="false"
     inkscape:zoom="10.429825"
     inkscape:cx="21.732955"
     inkscape:cy="55.146643"
     inkscape:window-x="0"
     inkscape:window-y="0"
     inkscape:window-maximized="1"
     inkscape:current-layer="svg3542" />
  <path
     d="m5.1 0c-2.8 0-5.1 2.3-5.1 5.1v53.8c0 2.8 2.3 5.1 5.1 5.1h45.8c2.8 0 5.1-2.3 5.1-5.1v-38.6l-18.9-20.3h-32z"
     id="path3544"
     fill="#00AAF9" />
  <path
     fill="#6B0D12"
     d="m56 20.4v1h-12.8s-6.3-1.3-6.1-6.7c0 0 0.2 5.7 6 5.7h12.9z"
     id="path3546" />
  <path
     opacity=".5"
     fill="#fff"
     enable-background="new"
     d="m37.1 0v14.6c0 1.7 1.1 5.8 6.1 5.8h12.8l-18.9-20.4z"
     id="path3548" />
  <path
     fill="#fff"
     d="m14.9 49h-3.3v4.1c0 0.4-0.3 0.7-0.8 0.7-0.4 0-0.7-0.3-0.7-0.7v-10.2c0-0.6 0.5-1.1 1.1-1.1h3.7c2.4 0 3.8 1.7 3.8 3.6 0 2-1.4 3.6-3.8 3.6z m-0.1-5.9h-3.2v4.6h3.2c1.4 0 2.4-0.9 2.4-2.3s-1-2.3-2.4-2.3z m10.4 10.7h-3c-0.6 0-1.1-0.5-1.1-1.1v-9.8c0-0.6 0.5-1.1 1.1-1.1h3c3.7 0 6.2 2.6 6.2 6s-2.4 6-6.2 6z m0-10.7h-2.6v9.3h2.6c2.9 0 4.6-2.1 4.6-4.7 0.1-2.5-1.6-4.6-4.6-4.6z m16.3 0h-5.8v3.9h5.7c0.4 0 0.6 0.3 0.6 0.7s-0.3 0.6-0.6 0.6h-5.7v4.8c0 0.4-0.3 0.7-0.8 0.7-0.4 0-0.7-0.3-0.7-0.7v-10.2c0-0.6 0.5-1.1 1.1-1.1h6.2c0.4 0 0.6 0.3 0.6 0.7 0.1 0.3-0.2 0.6-0.6 0.6z"
     id="path3550" />
  <rect
     style="fill:#ffffff;fill-opacity:1;stroke:#ffffff;stroke-width:0.87254685"
     id="rect3460"
     width="53.959934"
     height="10.959305"
     x="-28.030506"
     y="14.533691"
     transform="matrix(0.68763702,-0.72605463,0.68763702,0.72605463,0,0)" />
  <text
     xml:space="preserve"
     style="font-style:normal;font-variant:normal;font-weight:normal;font-stretch:normal;font-size:7.5px;line-height:125%;font-family:Montserrat;-inkscape-font-specification:Montserrat;letter-spacing:0px;word-spacing:0px;fill:#00aaf9;fill-opacity:1;stroke:none;stroke-width:1px;stroke-linecap:butt;stroke-linejoin:miter;stroke-opacity:1"
     x="-15.039739"
     y="22.610077"
     id="text3464"
     sodipodi:linespacing="125%"
     transform="matrix(0.70710678,-0.70710678,0.70710678,0.70710678,0,0)"><tspan
       sodipodi:role="line"
       id="tspan3466"
       x="-15.039739"
       y="22.610077">QUOTE</tspan></text>
</svg>
