<svg id="calendarIcon" xmlns="http://www.w3.org/2000/svg" viewBox="0 0 40.16 44.65" aria-hidden="true"><g id="Layer_2" data-name="Layer 2"><g id="Capa_1" data-name="Capa 1"><g id="timetable"><path d="M32.63,4.5H31.57V2.87a2.87,2.87,0,1,0-5.74,0V4.5H14.36V2.87a2.87,2.87,0,1,0-5.74,0V4.5H7.53A7.54,7.54,0,0,0,0,12V13.1H40.16V12A7.53,7.53,0,0,0,32.63,4.5ZM11.49,10A2.85,2.85,0,0,1,8.64,7.13a2.6,2.6,0,0,1,.06-.56,3,3,0,0,0,5.57,0,3.43,3.43,0,0,1,.06.56A2.85,2.85,0,0,1,11.49,10Zm17.26,0a2.86,2.86,0,0,1-2.86-2.84A2.6,2.6,0,0,1,26,6.57a3,3,0,0,0,5.57,0,2.1,2.1,0,0,1,.07.56A2.85,2.85,0,0,1,28.75,10Z" fill="inherit"/><path d="M7.19,16H0V37.12a7.54,7.54,0,0,0,7.53,7.53H32.65a7.53,7.53,0,0,0,7.51-7.53V16h-33ZM2.51,37.61V18.29H37.66V37.61A4.31,4.31,0,0,1,33.46,42H6.72A4.31,4.31,0,0,1,2.51,37.61Z" fill="inherit"/><path d="M17,24h6.28a.62.62,0,0,1,.62.62v3.77a.62.62,0,0,1-.62.62H17a.63.63,0,0,1-.63-.63V24.66A.62.62,0,0,1,17,24Z" fill="inherit"/><path d="M33.9,28.43a.63.63,0,0,1-.64.62H27a.63.63,0,0,1-.63-.62V24.66A.63.63,0,0,1,27,24h6.27a.63.63,0,0,1,.64.62Z" fill="inherit"/><path d="M33.9,36a.64.64,0,0,1-.64.63H27a.64.64,0,0,1-.63-.63V32.2a.65.65,0,0,1,.63-.64h6.27a.64.64,0,0,1,.64.64Z" fill="inherit"/><path d="M23.86,36a.64.64,0,0,1-.63.63H17a.63.63,0,0,1-.62-.63V32.2a.64.64,0,0,1,.62-.64h6.28a.65.65,0,0,1,.63.64Z" fill="inherit"/><path d="M13.82,36a.63.63,0,0,1-.63.63H6.92A.64.64,0,0,1,6.28,36V32.2a.64.64,0,0,1,.64-.64h6.27a.64.64,0,0,1,.63.64Z" fill="inherit"/></g></g></g></svg>