<?xml version="1.0" encoding="utf-8"?>
<!-- Generator: Adobe Illustrator 15.0.0, SVG Export Plug-In . SVG Version: 6.00 Build 0)  -->
<!DOCTYPE svg PUBLIC "-//W3C//DTD SVG 1.1//EN" "http://www.w3.org/Graphics/SVG/1.1/DTD/svg11.dtd">
<svg version="1.1" xmlns="http://www.w3.org/2000/svg" xmlns:xlink="http://www.w3.org/1999/xlink" x="0px" y="0px"
	 width="175.829px" height="88.18px" viewBox="0 0 175.829 88.18" enable-background="new 0 0 175.829 88.18" xml:space="preserve">
<g id="Layer_1">
	<g>
		<path fill="#FFFFFF" d="M32.314,9.941h31.56C61.78,4.154,56.247,0,49.745,0H39.088c-2.436,0-4.737,0.583-6.773,1.618
			c-2.172,1.104-4.033,2.727-5.441,4.697c-0.793,1.109-1.448,2.323-1.921,3.626h1.921H32.314z"/>
		<path fill="#FFFFFF" d="M1.852,30.021l16.734,31.911c0.315,0.588,4.451,11.765,18.841,8.906c0,0,12.629-4.802,19.333,0
			L84.266,87.41l0.239,0.1c1.053,0.429,2.202,0.669,3.409,0.669c1.207,0,2.356-0.241,3.409-0.669l0.239-0.1l27.507-16.572
			c6.703-4.802,19.333,0,19.333,0c14.391,2.858,18.526-8.318,18.842-8.906l16.733-31.911H87.915H1.852z"/>
		<path fill="#FFFFFF" d="M175.527,24.43c-0.415-0.84-1.188-1.359-2.028-1.359h-6.644c-2.783-5.661-8.585-9.575-15.305-9.575H87.915
			H24.279c-6.721,0-12.521,3.915-15.305,9.575H2.329c-0.839,0-1.613,0.519-2.027,1.359c-0.413,0.839-0.402,1.871,0.034,2.697
			l0.551,1.053h87.028h87.027l0.551-1.053C175.929,26.301,175.94,25.27,175.527,24.43z"/>
	</g>
	<g>
		<g>
			<path fill="#414042" d="M133.256,215.64c0.753,0,2.045-1.145,0.738-1.145C133.241,214.496,131.949,215.64,133.256,215.64
				L133.256,215.64z"/>
		</g>
	</g>
</g>
<g id="Layer_2">
</g>
</svg>
