<?xml version="1.0" encoding="utf-8"?>
<!-- Generator: Adobe Illustrator 17.1.0, SVG Export Plug-In . SVG Version: 6.00 Build 0)  -->
<!DOCTYPE svg PUBLIC "-//W3C//DTD SVG 1.1//EN" "http://www.w3.org/Graphics/SVG/1.1/DTD/svg11.dtd">
<svg version="1.1" id="Layer_1" xmlns="http://www.w3.org/2000/svg" xmlns:xlink="http://www.w3.org/1999/xlink" x="0px" y="0px"
	 viewBox="8 34.1 895.6 107.3" enable-background="new 8 34.1 895.6 107.3" xml:space="preserve">
<g>
	<path d="M472.7,111.8c1.7-0.1,5.1-0.4,8.3-0.4c4,0,6.4,0.4,8.5,1.7c2,1,3.4,2.9,3.4,5.7c0,2.4-1.4,4.7-4.7,5.9v0.1
		c3.3,1,5.7,3.5,5.7,7c0,2.6-1.2,4.7-3,6.2c-2.1,1.7-5.6,2.5-11.2,2.5c-3.1,0-5.5-0.3-7-0.5L472.7,111.8z M479,135.6
		c0.6,0,1.4,0,2.6,0c2.9,0,5.5-1.2,5.5-4.2c0-2.8-2.6-4-5.8-4l-2.2,0L479,135.6z M479.1,123l2.1,0c3.4,0,5.3-1.4,5.3-3.6
		c0-2.1-1.7-3.3-4.6-3.3c-1.4,0-2.3,0-2.7,0.1L479.1,123z"/>
	<path d="M575.4,125.8c0,9.5-5.7,15.1-14.1,15.1c-8.4,0-13.4-6.6-13.4-14.7c0-8.6,5.5-14.9,13.9-14.8
		C570.7,111.4,575.4,117.9,575.4,125.8z M554.7,126c0,5.6,2.7,9.6,6.9,9.6c4.4,0,6.9-4.1,7-9.7c0-5.1-2.4-9.6-6.9-9.6
		C557.4,116.4,554.7,120.5,554.7,126z"/>
	<path d="M637.1,133.2l-2,7.4l-6.6,0l8.7-28.6l8.5,0l8.8,28.7l-7,0l-2.1-7.4L637.1,133.2z M644.4,128.6l-1.8-6.1
		c-0.4-1.7-1-3.8-1.4-5.5l0,0c-0.4,1.7-0.9,3.8-1.4,5.5l-1.7,6.1L644.4,128.6z"/>
	<path d="M713.2,117.6l-7.6,0l0-5.4l21.9,0.1l0,5.4l-7.7,0l-0.1,23.3l-6.5,0L713.2,117.6z"/>
	<path d="M782,134.3c1.7,1,4.4,1.9,7.2,1.9c3,0,4.6-1.2,4.6-3.1c0-1.7-1.3-2.8-4.9-4c-4.6-1.8-7.8-4.4-7.8-8.5
		c0-4.8,4.1-8.6,10.8-8.5c3.3,0,5.6,0.8,7.3,1.5l-1.5,5.3c-1-0.6-3.2-1.4-6-1.4c-2.8,0-4.2,1.4-4.2,2.8c0,1.7,1.6,2.6,5.2,4
		c5.2,1.7,7.4,4.4,7.4,8.6c0,4.7-3.6,8.7-11.6,8.7c-3.1,0-6.4-0.8-8-1.6L782,134.3z"/>
</g>
<path d="M397.2,58.7l48.9-0.5c-3.3-30.9-105-33.3-139.2-0.1c-11.6,11.5-11.8,23.7,1,34.9c19.5,16.8,61.7,16.1,85.7,5.8l-1.7,3.2
	h37.8l15.4-36.2l-63.6,0.1l-6.3,14.7l12.7-0.1c0.2,1-16.9,10.4-29.9,5.8c-11.6-10.3-7.1-24.1,8.5-30.9
	C379.3,49.4,394,49.4,397.2,58.7L397.2,58.7z"/>
<polygon points="602.5,34.6 657.7,34.8 673.7,59.7 685.9,34.5 738.7,34.5 708.2,101.4 653.6,101.4 638,75.6 625.8,101.7 
	571.8,101.4 "/>
<polygon points="472.1,35.1 588.4,35.1 579,52.7 511.9,52.7 507.7,61.5 571.5,61 565.2,76 501.4,75.8 497.6,85.4 567.8,84.8 
	560.3,101.7 441.8,101.7 "/>
<polygon points="192.3,36.5 307.7,36.1 299.5,53.3 232.8,54 227.4,62.5 291.9,61.9 284.9,76.9 221.5,76.9 217.1,85.9 288.2,86.2 
	281.2,103 160.8,103.2 "/>
<path d="M77.7,37h47.5L103.9,83l47.4-0.3c-13.3,7.4-20.7,11.6-41.9,8.3c-7.5-1.1-19.8,4-30.8,8.9c-11.4,5.8-15,2.3-30.2,1.9L77.7,37
	L77.7,37z"/>
<path d="M156.9,84.4c-4.8,0-9.6,1.6-14.3,4.7c-10.4,5.8-20.1,7.4-29.4,5.2c-10.2-1.8-17.6,0.9-41,10.5c-7.6,2.5-12.3,1.2-21,0.2
	c-14.6-1.5-26.6,9.8-37.9,12.3c-1.1,0.3-4.3-0.2-5.3,0.6c9.1,7.5,23.1,7.1,46.2-4.4c6.3-3.1,13.3-3.7,21-2
	c23.6,3.3,26.9-9.2,44.9-11.5c7.4-0.1,16.3,1.6,22.7,1.3c2.9-0.3,5-1.1,7.8-2.1L156.9,84.4L156.9,84.4z"/>
<path d="M146.4,104.2c-2.7,0.3-8.3,0-15.5-0.8c-5.8-1.4-14.1,0.5-23.9,4.5c-13.1,6.8-23.5,8.8-31.4,6.6c-8.5-1.6-17.5,0.4-26.8,4.9
	c-6.8,3.3-12.4,5.3-17.5,7c-1.6,0-5.5,0.2,0.9,2.5c9.6,5.3,20.2,3.2,31.4-2c11.4-5.5,21.7-8.5,29.5-6.8c9.6,1.9,19.4,1,28-4
	c8.4-3.6,15.7-6.7,22.4-8.9C145.8,106.2,149.9,104.7,146.4,104.2L146.4,104.2z"/>
<path d="M832.2,34.8l-81.4-0.1l-29.6,66.2l82-0.1C878.3,106.1,926.9,33.6,832.2,34.8z M860,61.5c0,0,0,0.1-0.6,0.2
	c-0.8,0.2-0.7,0.2-0.8,0.6c0,0.2-1.1,1.3-1.7,1.9c-1.1,1-5.6,4.4-6.8,5.2c-1.7,1.1-8.7,4.4-11.1,5.1c-2.6,0.7-9.3,2.3-12.7,2.6
	c-3.1,0.4-9.8,0.3-9.8,0.3l-50.7,0.6c0,0-4.1,0.1-4.5-0.2c-0.5-0.2-0.5-2.3-0.5-2.3l0-8.6c0,0-0.8,1-1.1,2.1
	c-0.3,0.9-1.8,11.1-1.8,11.4c-0.1,0.3-5,2.7-5,2.7l-0.9-0.1c0,0,1.1-1.8,1.3-2.3c0.2-0.3-0.1-1.1-0.1-1.1l-1.1,0c0,0,0.1,1.1,0,1.3
	c0,0.2-0.1-0.2-0.1-0.2l-0.3-1l-0.8-0.7c0,0,0.3-0.1,0.4-0.3c0.1-0.2,0.9-0.3,0.9-0.3s-0.3-1.6-0.3-1.7c0.1-0.2,0.3-0.3,0.4,0.1
	c0.2,0.2,0.1,1.7,0.1,1.7h0.8l-0.2-3.1h-2.2c0,0,1.3-2.3,1.5-3.6c0.4-1.3,0.2-3.4,0-4.6c0-1.1-1.7-2.2-2-3c-0.2-0.8,1.1-7.8,1.5-8.8
	c0.4-1,2-1.9,3.3-2.1c1.3-0.2,5.3,0.5,5.3,0.5s0.9,1.2,1.6,1.8c0.8,0.5,0.4,2.1,1.2,3.2c0.7,1.2,1.6,1,1.6,1l34.7-0.2
	c0,0,2.6,0.2,3.7-0.2c1.1-0.4,0.7-2.2-0.1-3.5c-0.9-1.5-0.3-1.9-0.3-1.9s2.3-1.6,4.8-2.4c1.3-0.5,5.2-1.5,5.9-1.2
	c0.4,0.4,2.3,3,3.2,4.2c1.1,1.6,2.7,3,4.4,3.5c2,0.5,4,0.6,4,0.6s31.5,0.6,33.5,1.2C860.2,60.7,860,61.5,860,61.5z"/>
<g>
	<path d="M892.3,81.6c2,0,3.9,0.5,5.6,1.3c1.8,0.9,3.2,2.2,4.2,3.7c1.1,1.6,1.5,3.3,1.5,5.1c0,1.8-0.3,3.4-1.5,4.8
		c-0.9,1.6-2.3,2.8-4.2,3.8c-1.6,0.8-3.6,1.3-5.6,1.3c-1.8,0-3.8-0.5-5.6-1.3c-1.6-1-3-2.2-4.2-3.8c-0.9-1.5-1.5-3.1-1.5-4.8
		c0-1.8,0.6-3.5,1.5-5.1c1.2-1.5,2.6-2.8,4.2-3.7C888.7,82.1,890.6,81.6,892.3,81.6z M892.3,83.3c-1.5,0-3,0.4-4.5,1
		c-1.5,0.8-2.6,1.8-3.6,3.1c-0.8,1.3-1.3,2.7-1.3,4.2c0,1.4,0.5,2.8,1.2,4.1c1,1.3,2.1,2.3,3.6,3.1c1.5,0.6,3.1,1,4.5,1
		c1.7,0,3.2-0.4,4.7-1c1.5-0.9,2.6-1.8,3.6-3.1c0.7-1.3,1.2-2.7,1.2-4.1c0-1.5-0.5-2.8-1.2-4.2c-1-1.3-2.1-2.3-3.6-3.1
		C895.5,83.7,893.9,83.3,892.3,83.3z M887.5,97V86.4h4.2c1.4,0,2.4,0.1,3.1,0.2c0.5,0.2,1.1,0.6,1.5,1.1c0.2,0.4,0.4,1,0.4,1.6
		c0,0.7-0.3,1.4-0.9,1.9c-0.7,0.7-1.5,0.9-2.5,0.9c0.3,0.2,0.7,0.4,1,0.7c0.6,0.5,1,1.1,1.8,2.1l1.5,2.1h-2.6l-1-1.7
		c-0.8-1.3-1.5-2-1.9-2.4c-0.4-0.3-1-0.4-1.6-0.4h-1.2V97L887.5,97L887.5,97z M889.5,91h2.4c1.1,0,1.8-0.2,2.2-0.3
		c0.5-0.3,0.7-0.8,0.7-1.3c0-0.2-0.1-0.5-0.4-0.8c-0.2-0.3-0.6-0.5-0.8-0.6c-0.3,0-1.1-0.1-2-0.1h-2.2V91z"/>
</g>
</svg>
