<?xml version="1.0" encoding="utf-8"?>
<!-- Generator: Adobe Illustrator 15.0.0, SVG Export Plug-In . SVG Version: 6.00 Build 0)  -->
<!DOCTYPE svg PUBLIC "-//W3C//DTD SVG 1.1//EN" "http://www.w3.org/Graphics/SVG/1.1/DTD/svg11.dtd">
<svg version="1.1" id="Layer_1" xmlns="http://www.w3.org/2000/svg" xmlns:xlink="http://www.w3.org/1999/xlink" x="0px" y="0px"
	 width="121.739px" height="80.54px" viewBox="119.396 140.357 121.739 80.54"
	 enable-background="new 119.396 140.357 121.739 80.54" xml:space="preserve">
<g>
	<path fill="#FFFFFF" d="M133.226,166.036h94.077c0.711,0,1.367-0.377,1.727-0.988c0.359-0.612,0.365-1.369,0.021-1.989
		l-12.135-21.679c-0.354-0.632-1.021-1.023-1.744-1.023h-69.808c-0.724,0-1.392,0.392-1.745,1.023l-12.136,21.679
		c-0.347,0.62-0.339,1.376,0.021,1.988C131.86,165.659,132.516,166.036,133.226,166.036z M146.534,144.356h67.462l9.896,17.68
		h-87.254L146.534,144.356z"/>
	<path fill="#FFFFFF" d="M240.926,171.17c-0.287-0.581-0.824-0.941-1.406-0.941H121.007c-0.581,0-1.116,0.36-1.403,0.941
		c-0.286,0.581-0.276,1.295,0.023,1.867l0.382,0.729h120.513l0.381-0.729C241.203,172.465,241.213,171.751,240.926,171.17z"/>
	<path fill="#FFFFFF" d="M134.916,202.189c0.191,0.367,0.491,0.646,0.845,0.791l43.968,17.812c0.174,0.068,0.354,0.104,0.537,0.104
		c0.182,0,0.363-0.035,0.537-0.104l43.969-17.812c0.354-0.145,0.652-0.424,0.847-0.791l14.235-27.147H120.678L134.916,202.189z"/>
</g>
</svg>
