<?xml version="1.0" encoding="utf-8"?>
<!-- Generator: Adobe Illustrator 15.0.0, SVG Export Plug-In . SVG Version: 6.00 Build 0)  -->
<!DOCTYPE svg PUBLIC "-//W3C//DTD SVG 1.1//EN" "http://www.w3.org/Graphics/SVG/1.1/DTD/svg11.dtd">
<svg version="1.1" id="Layer_1" xmlns="http://www.w3.org/2000/svg" xmlns:xlink="http://www.w3.org/1999/xlink" x="0px" y="0px"
	 width="121.739px" height="50.669px" viewBox="119.308 155.201 121.739 50.669"
	 enable-background="new 119.308 155.201 121.739 50.669" xml:space="preserve">
<g>
	<g>
		<path fill="#FFFFFF" d="M240.838,156.142c-0.286-0.581-0.822-0.941-1.404-0.941H120.92c-0.582,0-1.116,0.36-1.403,0.941
			c-0.286,0.581-0.278,1.295,0.022,1.867l0.383,0.729h120.512l0.381-0.729C241.115,157.437,241.125,156.723,240.838,156.142z"/>
		<path fill="#FFFFFF" d="M134.828,187.161c0.192,0.368,0.491,0.647,0.844,0.792l43.969,17.812c0.174,0.068,0.354,0.104,0.537,0.104
			c0.182,0,0.363-0.036,0.537-0.104l43.969-17.812c0.354-0.145,0.652-0.424,0.846-0.792l14.236-27.148H120.59L134.828,187.161z"/>
	</g>
</g>
</svg>
