<?xml version="1.0" encoding="utf-8"?>
<!-- Generator: Adobe Illustrator 15.0.0, SVG Export Plug-In . SVG Version: 6.00 Build 0)  -->
<!DOCTYPE svg PUBLIC "-//W3C//DTD SVG 1.1//EN" "http://www.w3.org/Graphics/SVG/1.1/DTD/svg11.dtd">
<svg version="1.1" id="Layer_1" xmlns="http://www.w3.org/2000/svg" xmlns:xlink="http://www.w3.org/1999/xlink" x="0px" y="0px"
	 width="110.61px" height="132.766px" viewBox="123.548 110.173 110.61 132.766"
	 enable-background="new 123.548 110.173 110.61 132.766" xml:space="preserve">
<g>
	<path fill="#FFFFFF" d="M190.717,136.82l-2.018,0.207l-0.492,1.635l1.725-0.174l0.02-0.002c0.632-0.064,1.168-0.298,1.431-0.629
		c0.14-0.172,0.193-0.354,0.169-0.545C191.51,136.953,191.202,136.774,190.717,136.82z"/>
	<path fill="#FFFFFF" d="M162.276,139.73l-2.018,0.208l-0.488,1.636l1.722-0.176l0.02-0.002c0.633-0.065,1.168-0.299,1.432-0.627
		c0.136-0.173,0.193-0.354,0.169-0.547C163.069,139.864,162.766,139.686,162.276,139.73z"/>
	<path fill="#FFFFFF" d="M222.438,133.433c0,0-8.094-9.745-13.047-16.353c0,0-2.148-5.286-10.078-6.442
		c0,0-32.454-3.633-57.644,9.415c0,0-4.375,1.816-6.688,6.689c0,0-6.203,11.793-9.793,28.325l104.453-10.653
		C227.948,140.986,225.628,137.261,222.438,133.433z M143.688,147.792l1.561-5.122l-3.52,5.322l-2.133,0.219l-0.384-5.147
		l-1.61,5.353l-2.686,0.274l2.527-8.214l3.986-0.408l0.133,4.789l3.162-5.126l4.076-0.418l-2.459,8.208L143.688,147.792z
		 M154.773,146.658l-7.567,0.773l2.444-8.204l7.557-0.774l-0.567,1.938l-4.796,0.491l-0.351,1.178l4.326-0.443l-0.538,1.781
		l-4.327,0.441l-0.411,1.354l4.814-0.494L154.773,146.658z M164.701,143.986c-0.16,0.625-0.439,1.7-0.439,1.7l-2.688,0.276
		c0,0,0.254-0.979,0.36-1.385c0.129-0.501,0.091-0.873-0.106-1.106c-0.251-0.288-0.697-0.291-0.945-0.265l-1.653,0.167l-0.873,2.918
		l-2.797,0.286l2.474-8.208l5.225-0.536c0.939-0.09,1.648,0.111,2.105,0.591c0.374,0.391,0.453,0.853,0.47,0.984
		c0.196,1.598-1.458,2.408-1.969,2.618C164.147,142.144,165.051,142.627,164.701,143.986z M175.639,139.459l-0.01,0.069
		l-2.695,0.288v-0.1c-0.002-0.267-0.096-0.496-0.277-0.658c-0.256-0.229-0.668-0.328-1.163-0.276h-0.009
		c-0.762,0.081-1.561,0.571-2.141,1.312c-0.529,0.674-0.778,1.435-0.689,2.088c0.113,0.834,0.689,1.24,1.625,1.145l0.021-0.002
		c0.87-0.096,1.736-0.771,2.058-1.607l0.019-0.05l2.823-0.308l-0.055,0.136c-0.407,1.054-1.052,1.915-1.915,2.562
		c-0.922,0.688-2.068,1.11-3.416,1.261c-0.02,0.003-0.043,0.005-0.066,0.009c-3.224,0.329-3.837-1.59-3.951-2.429
		c-0.157-1.147,0.241-2.423,1.09-3.503c1.13-1.441,2.923-2.387,4.912-2.594l0.019-0.002c1.806-0.184,2.753,0.363,3.228,0.857
		C175.516,138.139,175.731,138.797,175.639,139.459z M179.239,144.375l-0.05,0.008c-1.268,0.129-2.378-0.229-2.973-0.964
		c-0.508-0.622-0.621-1.439-0.324-2.366l1.424-4.658l2.651-0.271l-1.448,4.765c-0.148,0.511-0.115,0.918,0.104,1.181
		c0.212,0.256,0.601,0.369,1.097,0.318l0.02-0.004c0.928-0.102,1.566-0.707,1.898-1.803l1.438-4.775l2.629-0.268l-1.416,4.716
		c-0.371,1.237-0.933,2.162-1.715,2.829C181.74,143.797,180.646,144.221,179.239,144.375z M192.301,139.115
		c0.286,0.117,1.19,0.6,0.838,1.96c-0.16,0.626-0.433,1.7-0.433,1.7l-2.655,0.272c0,0,0.232-1.033,0.32-1.379
		c0.13-0.503,0.095-0.876-0.105-1.108c-0.248-0.288-0.697-0.289-0.942-0.266l-1.655,0.17l-0.868,2.916l-2.805,0.287l2.478-8.209
		l5.231-0.536c2.235-0.21,2.532,1.272,2.569,1.573C194.467,138.094,192.812,138.906,192.301,139.115z M198.986,139.223l-0.902,3.002
		l-2.757,0.281l0.991-3.289l-2.053-4.557l2.957-0.303l1.092,2.477l2.692-2.863l3.304-0.338
		C204.311,133.633,199.289,138.906,198.986,139.223z M215.665,141.212c-5.647-7.45-16.95-17.504-16.95-17.504
		c-2.415-2.292-10.404-2.416-10.404-2.416c-22.854-0.991-44.473,6.07-44.473,6.07c0-1.302,1.301-2.54,1.301-2.54
		c22.67-9.848,47.072-8.176,47.072-8.176c6.258-0.062,10.654,4.646,10.654,4.646c7.031,5.927,13.654,16.005,15.908,19.606
		L215.665,141.212z"/>
	<path fill="#FFFFFF" d="M183.907,185.479c-17.425-3.131-46.186-11.996-59.068-16.099c0.316,1.54,0.791,3.149,1.416,4.806
		c0.028,0.08,1.675,4.99,4.136,9.912l0,0c0.012,0,0.902,1.199,3.696,2.889l22.81,11.113c0.252,0.121,6.299,3.164,7.396,16.611
		c0.01,0.16,0.826,14.126,1.03,25.91c0.378,0.281,0.704,0.592,1.021,0.895c0.832,0.797,1.49,1.424,2.887,1.424
		c1.393,0,2.049-0.627,2.879-1.424c0.92-0.881,1.963-1.881,4.02-1.881c2.055,0,3.098,1,4.019,1.881
		c0.83,0.797,1.485,1.424,2.88,1.424c1.393,0,2.049-0.627,2.879-1.422c0.92-0.883,1.963-1.883,4.021-1.883c2.055,0,3.1,1,4.02,1.881
		c0.83,0.797,1.484,1.424,2.88,1.424c1.394,0,2.048-0.627,2.878-1.422c0.92-0.883,1.964-1.883,4.021-1.883
		c1.937,0,2.976,0.887,3.859,1.727c3.766-8.641,21.982-51.365,25.449-77.147l-21.758,15.972c-5.885,4.694-14.545,5.685-20.769,5.685
		C186.674,185.869,184.02,185.494,183.907,185.479z"/>
	<path fill="#FFFFFF" d="M209.948,178.418l24.21-17.771c-0.083-2.213-0.654-7.827-3.893-14.9L124.89,156.493
		c-0.431,2.104-0.818,4.273-1.141,6.505c0,0-0.332,1.263-0.142,3.667c11.675,3.744,42.461,13.361,60.634,16.629
		C184.379,183.311,201.043,185.518,209.948,178.418z"/>
</g>
</svg>
