<?xml version="1.0" encoding="utf-8"?>
<!-- Generator: Adobe Illustrator 15.0.0, SVG Export Plug-In . SVG Version: 6.00 Build 0)  -->
<!DOCTYPE svg PUBLIC "-//W3C//DTD SVG 1.1//EN" "http://www.w3.org/Graphics/SVG/1.1/DTD/svg11.dtd">
<svg version="1.1" id="Layer_1" xmlns="http://www.w3.org/2000/svg" xmlns:xlink="http://www.w3.org/1999/xlink" x="0px" y="0px"
	 width="124.559px" height="99.671px" viewBox="118.39 130.7 124.559 99.671" enable-background="new 118.39 130.7 124.559 99.671"
	 xml:space="preserve">
<g id="Layer_1_1_">
	<g>
		<path fill="#FFFFFF" d="M133.802,165.928v-14.884c0-9.069,7.381-16.45,16.451-16.45h1.668v0.067h56.114v-0.067h3.052
			c9.07,0,16.45,7.381,16.45,16.45v24.332h3.826v-24.332c0-11.182-9.096-20.276-20.276-20.276h-3.052V130.7h-56.114v0.066h-1.668
			c-11.18,0-20.277,9.096-20.277,20.276v15.271c0.955-0.244,1.949-0.388,2.978-0.388L133.802,165.928L133.802,165.928z"/>
		<path fill="#FFFFFF" d="M201.973,167.442c-1.408,0-2.551,1.143-2.551,2.551v5.383h17.36v-5.383c0-1.408-1.142-2.551-2.55-2.551
			H201.973z"/>
		<path fill="#FFFFFF" d="M173.847,167.442c-1.409,0-2.55,1.143-2.55,2.551v5.383h17.361v-5.383c0-1.408-1.143-2.551-2.553-2.551
			H173.847z"/>
		<path fill="#FFFFFF" d="M141.509,167.442h-8.504c-5.188,0-9.607,3.313-11.281,7.934h31.062
			C151.112,170.757,146.698,167.442,141.509,167.442z"/>
		<polygon fill="#FFFFFF" points="118.39,204.945 118.39,208.354 124.298,208.354 124.294,208.355 134.663,208.355 136.088,208.355 
			136.089,208.355 136.085,208.354 137.987,208.354 137.99,208.355 156.903,208.355 156.904,208.354 204.462,208.354 
			204.465,208.355 223.359,208.355 223.361,208.354 225.25,208.354 225.246,208.355 225.251,208.355 233.965,208.355 
			237.044,208.355 237.04,208.354 242.948,208.354 242.948,204.945 		"/>
		<path fill="#FFFFFF" d="M237.788,176.901h-21.005v-0.012h-17.359v0.012h-10.765v-0.012h-17.361v0.012h-18.06
			c-0.002-0.004-0.003-0.008-0.003-0.012h-31.957c-0.176,0.794-0.27,1.617-0.277,2.463h119.328
			C240.275,177.99,239.164,176.901,237.788,176.901z"/>
		<rect x="120.999" y="180.628" fill="#FFFFFF" width="119.341" height="19.556"/>
		<rect x="120.999" y="201.458" fill="#FFFFFF" width="119.341" height="1.976"/>
		<path fill="#FFFFFF" d="M221.916,209.633h-16.193l13.459,13.637c-0.576-1.457-0.902-3.041-0.902-4.701
			C218.279,215.096,219.67,211.945,221.916,209.633z"/>
		<path fill="#FFFFFF" d="M143.059,218.566c0,1.679-0.332,3.276-0.919,4.748l13.504-13.685h-16.219
			C141.67,211.947,143.059,215.096,143.059,218.566z"/>
		<path fill="#FFFFFF" d="M238.842,209.633h-5.341h-10.046l0,0c-0.305,0.264-0.596,0.542-0.873,0.835
			c-0.008,0.009-0.018,0.015-0.023,0.022c-0.049,0.052-0.092,0.111-0.14,0.164c-1.901,2.092-3.071,4.861-3.071,7.912
			c0,0.429,0.026,0.851,0.07,1.268c0.014,0.124,0.039,0.243,0.057,0.366c0.041,0.293,0.084,0.584,0.146,0.87
			c0.027,0.13,0.064,0.255,0.1,0.382c0.068,0.276,0.143,0.55,0.23,0.817c0.037,0.117,0.083,0.229,0.126,0.344
			c0.103,0.277,0.208,0.548,0.327,0.813c0.045,0.097,0.092,0.19,0.139,0.285c0.137,0.28,0.282,0.556,0.438,0.821
			c0.045,0.072,0.088,0.146,0.135,0.218c0.176,0.285,0.361,0.562,0.562,0.829c0.036,0.05,0.073,0.102,0.11,0.148
			c0.221,0.289,0.455,0.564,0.701,0.832c0.022,0.024,0.046,0.051,0.067,0.076c0.272,0.29,0.56,0.565,0.857,0.826
			c0.002,0.003,0.003,0.005,0.005,0.006l0,0c2.072,1.801,4.771,2.896,7.729,2.896c6.516,0,11.801-5.283,11.801-11.801
			C242.948,214.992,241.352,211.796,238.842,209.633z"/>
		<path fill="#FFFFFF" d="M139.562,225.719c0.211-0.275,0.412-0.562,0.599-0.855c0.012-0.019,0.021-0.037,0.032-0.055
			c0.177-0.283,0.343-0.569,0.495-0.867c0.022-0.043,0.042-0.088,0.064-0.133c0.137-0.274,0.267-0.555,0.382-0.841
			c0.033-0.081,0.059-0.163,0.09-0.245c0.097-0.259,0.191-0.517,0.271-0.781c0.039-0.131,0.066-0.266,0.102-0.397
			c0.06-0.226,0.121-0.449,0.167-0.68c0.04-0.2,0.063-0.405,0.093-0.608c0.025-0.173,0.059-0.343,0.075-0.52
			c0.038-0.385,0.06-0.773,0.06-1.168c0-0.447-0.025-0.889-0.074-1.323c0-0.001,0-0.003-0.001-0.005
			c-0.341-3.033-1.836-5.715-4.032-7.606h-0.009h-3.017h-12.36c-2.511,2.163-4.107,5.36-4.107,8.937
			c0,6.518,5.284,11.801,11.801,11.801c3.437,0,6.521-1.479,8.678-3.823l0,0c0-0.001,0-0.002,0.002-0.003
			c0.24-0.261,0.468-0.529,0.684-0.812C139.557,225.727,139.559,225.723,139.562,225.719z"/>
	</g>
</g>
</svg>
