<?xml version="1.0" encoding="utf-8"?>
<!-- Generator: Adobe Illustrator 15.0.0, SVG Export Plug-In . SVG Version: 6.00 Build 0)  -->
<!DOCTYPE svg PUBLIC "-//W3C//DTD SVG 1.1//EN" "http://www.w3.org/Graphics/SVG/1.1/DTD/svg11.dtd">
<svg version="1.1" id="Layer_1" xmlns="http://www.w3.org/2000/svg" xmlns:xlink="http://www.w3.org/1999/xlink" x="0px" y="0px"
	 width="121.739px" height="68.15px" viewBox="119.34 146.553 121.739 68.15" enable-background="new 119.34 146.553 121.739 68.15"
	 xml:space="preserve">
<g>
	<g>
		<path fill="#FFFFFF" d="M134.86,195.994c0.192,0.367,0.491,0.646,0.845,0.792l43.968,17.812c0.174,0.069,0.354,0.105,0.537,0.105
			c0.182,0,0.363-0.036,0.537-0.105l43.969-17.812c0.354-0.146,0.652-0.425,0.847-0.792l14.235-27.148H120.623L134.86,195.994z"/>
		<path fill="#FFFFFF" d="M240.87,164.975c-0.286-0.581-0.823-0.941-1.405-0.941H120.952c-0.581,0-1.116,0.36-1.403,0.941
			c-0.286,0.581-0.278,1.295,0.023,1.867l0.382,0.729h120.511l0.383-0.729C241.146,166.27,241.157,165.556,240.87,164.975z"/>
		<path fill="#FFFFFF" d="M157.622,151.363c0-2.655-1.847-4.81-4.124-4.81h-19.812c-2.276,0-4.12,2.154-4.12,4.81v10.149h28.057
			L157.622,151.363L157.622,151.363z"/>
	</g>
</g>
</svg>
